<svg xmlns="http://www.w3.org/2000/svg" viewBox="0 0 64 64" width="64" height="64">
  <rect width="64" height="64" rx="14" fill="#171316"/>
  <g fill="none" stroke="#ffffff" stroke-width="3.2" stroke-linecap="round" stroke-linejoin="round">
    <path d="M11 22 L32 10 L53 22"/>
    <path d="M15 24 H49"/>
    <path d="M17 30 H47"/>
    <path d="M17 30 a3 3 0 1 0 3 3"/>
    <path d="M47 30 a3 3 0 1 1 -3 3"/>
    <path d="M21 36 V48"/>
    <path d="M27 36 V48"/>
    <path d="M37 36 V48"/>
    <path d="M43 36 V48"/>
    <path d="M29 48 V41 a3 3 0 0 1 6 0 V48"/>
  </g>
  <path d="M10 55 c3.7 -4 7.3 -4 11 0 s7.3 4 11 0 s7.3 -4 11 0 s7.3 4 11 0" fill="none" stroke="#c5122f" stroke-width="3.2" stroke-linecap="round"/>
</svg>
